<?xml version="1.0" standalone="no"?>
<!DOCTYPE svg PUBLIC "-//W3C//DTD SVG 20010904//EN"
 "http://www.w3.org/TR/2001/REC-SVG-20010904/DTD/svg10.dtd">
<svg version="1.0" xmlns="http://www.w3.org/2000/svg"
 width="4167.000000pt" height="4167.000000pt" viewBox="0 0 4167.000000 4167.000000"
 preserveAspectRatio="xMidYMid meet">

<g transform="translate(0.000000,4167.000000) scale(0.100000,-0.100000)"
fill="#000000" stroke="none">
<path d="M17799 31333 c-68 -35 -110 -99 -117 -177 -6 -70 12 -119 60 -173
119 -129 333 -74 379 97 50 189 -145 342 -322 253z"/>
<path d="M37787 26786 c-83 -30 -148 -103 -167 -190 -14 -65 -5 -122 31 -185
71 -124 221 -164 350 -94 86 46 129 123 129 227 0 178 -175 301 -343 242z"/>
<path d="M37561 23949 c-42 -73 -124 -276 -154 -379 -46 -159 -53 -329 -18
-423 31 -81 134 -180 311 -297 118 -78 155 -112 185 -170 22 -44 42 -127 47
-198 3 -32 9 -37 123 -99 165 -89 360 -221 420 -284 28 -28 44 -48 36 -44 -8
5 3 -10 25 -32 46 -46 116 -161 138 -227 46 -136 -4 -203 -199 -261 -148 -45
-213 -87 -246 -160 -38 -84 -12 -175 65 -224 95 -60 312 -117 501 -131 375
-28 692 106 872 370 79 116 167 322 210 490 31 123 38 297 14 390 -14 58 -53
144 -77 171 -12 13 -12 25 -2 70 7 31 13 118 12 204 0 174 -19 263 -84 403
-52 111 -111 191 -205 280 -173 165 -411 282 -642 317 -188 28 -323 15 -612
-61 -226 -59 -316 -67 -392 -32 -94 43 -200 170 -269 321 l-27 61 -32 -55z"/>
<path d="M37924 22352 c-18 -54 -30 -75 -76 -128 -28 -33 -62 -84 -77 -114
-22 -47 -26 -67 -25 -145 1 -81 17 -169 44 -241 l10 -26 78 73 c247 231 453
333 597 296 30 -7 30 -7 -10 28 -69 60 -306 184 -483 254 -49 20 -53 20 -58 3z"/>
<path d="M37803 14299 c-33 -96 -69 -200 -79 -232 -21 -67 -40 -84 -144 -127
-200 -83 -662 -174 -1060 -211 -318 -29 -736 11 -1112 107 -76 20 -142 33
-148 29 -13 -8 -294 -384 -453 -607 -430 -602 -875 -1317 -988 -1591 -60 -143
-110 -403 -139 -717 -18 -184 -24 -941 -11 -1265 38 -944 143 -2086 312 -3390
53 -409 127 -937 133 -942 11 -11 201 -54 299 -68 216 -30 427 -15 689 51 139
35 366 108 381 123 5 5 1 242 -7 527 -35 1159 -40 1531 -41 2709 0 1200 4
1420 36 1775 43 491 147 796 373 1100 111 148 603 642 563 565 -65 -127 -80
-409 -42 -770 106 -987 604 -2729 1431 -5010 54 -148 62 -164 109 -210 46 -47
139 -106 148 -95 2 3 36 106 76 230 40 124 88 257 107 296 80 170 226 267 419
281 93 7 156 -8 274 -64 177 -84 226 -202 190 -458 -6 -42 -8 -79 -5 -83 10
-9 57 110 63 158 6 51 13 23 -363 1470 -287 1100 -406 1556 -586 2229 -82 311
-159 610 -169 665 -82 420 -59 803 68 1146 48 129 157 342 242 472 38 59 125
180 193 270 213 280 313 485 407 834 61 223 121 588 121 731 l0 42 -78 -49
c-109 -67 -318 -171 -432 -213 -152 -57 -375 -107 -475 -107 -42 0 -28 -30
-141 298 -46 134 -87 250 -92 259 -7 11 -26 -34 -69 -158z"/>
<path d="M4470 9403 c0 -5 152 -716 337 -1580 l337 -1573 1016 0 1015 0 274
1553 c151 853 277 1565 279 1581 l5 29 -704 -5 c-512 -3 -710 -8 -726 -16 -12
-7 -24 -8 -27 -3 -3 5 -112 12 -241 16 -223 7 -237 6 -250 -11 -13 -18 -14
-18 -32 -1 -18 16 -66 17 -651 17 -348 0 -632 -3 -632 -7z"/>
<path d="M27778 8303 c7 -3 16 -2 19 1 4 3 -2 6 -13 5 -11 0 -14 -3 -6 -6z"/>
<path d="M27473 8263 c9 -2 23 -2 30 0 6 3 -1 5 -18 5 -16 0 -22 -2 -12 -5z"/>
<path d="M27403 8253 c9 -2 23 -2 30 0 6 3 -1 5 -18 5 -16 0 -22 -2 -12 -5z"/>
<path d="M27333 8243 c9 -2 23 -2 30 0 6 3 -1 5 -18 5 -16 0 -22 -2 -12 -5z"/>
<path d="M27263 8233 c9 -2 23 -2 30 0 6 3 -1 5 -18 5 -16 0 -22 -2 -12 -5z"/>
<path d="M27183 8223 c9 -2 25 -2 35 0 9 3 1 5 -18 5 -19 0 -27 -2 -17 -5z"/>
<path d="M27113 8213 c9 -2 23 -2 30 0 6 3 -1 5 -18 5 -16 0 -22 -2 -12 -5z"/>
<path d="M27043 8203 c9 -2 23 -2 30 0 6 3 -1 5 -18 5 -16 0 -22 -2 -12 -5z"/>
<path d="M26963 8193 c9 -2 25 -2 35 0 9 3 1 5 -18 5 -19 0 -27 -2 -17 -5z"/>
<path d="M26893 8183 c9 -2 25 -2 35 0 9 3 1 5 -18 5 -19 0 -27 -2 -17 -5z"/>
<path d="M26823 8173 c9 -2 25 -2 35 0 9 3 1 5 -18 5 -19 0 -27 -2 -17 -5z"/>
<path d="M26695 8160 c-34 -6 -35 -7 -10 -8 17 0 50 3 75 7 40 8 41 8 10 8
-19 0 -53 -3 -75 -7z"/>
<path d="M26603 8143 c9 -2 25 -2 35 0 9 3 1 5 -18 5 -19 0 -27 -2 -17 -5z"/>
<path d="M25625 8015 c-489 -68 -906 -125 -925 -127 -31 -3 -35 -6 -32 -29 2
-14 128 -734 282 -1600 l278 -1574 1 208 1 207 -231 1386 c-127 762 -229 1388
-226 1391 3 2 401 60 884 128 964 135 944 132 893 132 -19 1 -435 -55 -925
-122z"/>
</g>
</svg>
